<svg xmlns="http://www.w3.org/2000/svg" viewBox="0 0 300 100">
  <g fill="#333" transform="translate(72.14620113372803,103.50603485107422)">
    <g class="tp-name" transform="translate(0,0)">
      <g transform="translate(0, 2.4)">
        <g data-gra="path-name" transform="scale(1)">
          <path d="M10.42-8.49L8.83-8.49L8.83 0L2.52 0L2.52-23.34L10.17-23.34Q19.68-23.34 19.68-16.44Q19.68-12.39 15.73-10.17L22.53 0L15.37 0L10.42-8.49ZM8.83-18.57L8.83-13.23L10.01-13.23Q13.31-13.23 13.31-16.16Q13.31-18.57 10.07-18.57Z" transform="translate(-2.52, 23.71)" />
        </g>
      </g>
      <g transform="translate(24, 0)">
        <g class="imagesvg">
          <g>
            <rect fill="#333" fill-opacity="0" stroke-width="2" x="0" y="0" width="28.83" height="28.83" />
            <svg x="0" y="0" width="28.83" height="28.83" viewBox="1.25 1.25 97.5 97.5">
              <path fill="#333" d="M18.58 87.27C7.98 78.33 1.25 64.95 1.25 50 1.25 23.08 23.08 1.25 50 1.25S98.75 23.08 98.75 50c0 14.95-6.73 28.33-17.33 37.27a37.081 37.081 0 0 0 5.86-20.07c0-20.59-16.69-37.28-37.28-37.28s-37.28 16.7-37.28 37.29c0 7.38 2.15 14.27 5.86 20.06z"/>
              <path fill="#333" d="M28.96 90.71c-6.45-5.78-10.51-14.17-10.51-23.51 0-17.42 14.12-31.54 31.54-31.54S81.53 49.78 81.53 67.2c0 9.34-4.06 17.73-10.51 23.51 1.23-2.81 1.91-5.91 1.91-9.17C72.94 68.87 62.67 58.6 50 58.6S27.06 68.87 27.06 81.54c0 3.26.68 6.36 1.9 9.17z"/>
              <circle fill="#333" cx="50" cy="81.54" r="17.21"/>
            </svg>
          </g>
        </g>
      </g>
      <g transform="translate(56, 2.4)">
        <g data-gra="path-name">
          <path d="M23.74 0L16.84 0L15.69-4.37L8.11-4.37L6.93 0L0 0L7.62-23.44L16.03-23.44L23.74 0ZM9.42-9.55L14.38-9.55L13.38-13.38Q13.03-14.66 12.52-16.68Q12.02-18.71 11.86-19.59Q11.72-18.77 11.29-16.91Q10.87-15.04 9.42-9.55Z" transform="translate(0, 23.71)"/>
        </g>
      </g>
      <g transform="translate(83, 2.4)">
        <g data-gra="path-name">
          <path d="M17.78-7.09Q17.78-4.92 16.68-3.23Q15.58-1.55 13.51-0.61Q11.43 0.32 8.64 0.32Q6.31 0.32 4.73-0.01Q3.15-0.34 1.44-1.15L1.44-6.77Q3.24-5.84 5.19-5.32Q7.14-4.81 8.76-4.81Q10.17-4.81 10.82-5.29Q11.48-5.78 11.48-6.55Q11.48-7.02 11.22-7.38Q10.95-7.74 10.37-8.11Q9.79-8.48 7.26-9.61Q4.98-10.65 3.84-11.62Q2.70-12.60 2.15-13.86Q1.60-15.12 1.60-16.84Q1.60-20.07 3.94-21.87Q6.29-23.68 10.39-23.68Q14.02-23.68 17.78-22.00L15.85-17.13Q12.58-18.63 10.20-18.63Q8.97-18.63 8.41-18.20Q7.85-17.77 7.85-17.13Q7.85-16.44 8.56-15.90Q9.28-15.36 12.42-13.92Q15.44-12.56 16.61-11.01Q17.78-9.45 17.78-7.09Z" transform="translate(-1.44, 23.71)" />
        </g>
      </g>
      <g transform="translate(103, 2.4)">
        <g data-gra="path-name">
          <path d="M12.82-18.18L12.82 0L6.51 0L6.51-18.18L0.81-18.18L0.81-23.34L18.50-23.34L18.50-18.18L12.82-18.18Z" transform="translate(-0.81, 23.71)" />
        </g>
      </g>
      <g transform="translate(124, 2.4)">
        <g data-gra="path-name">
          <path d="M24.36-11.70Q24.36-5.81 21.47-2.75Q18.58 0.32 13.01 0.32Q7.52 0.32 4.59-2.76Q1.66-5.84 1.66-11.73Q1.66-17.56 4.57-20.63Q7.49-23.71 13.04-23.71Q18.61-23.71 21.49-20.66Q24.36-17.61 24.36-11.70ZM8.30-11.70Q8.30-4.93 13.01-4.93Q15.41-4.93 16.56-6.58Q17.72-8.22 17.72-11.70Q17.72-15.20 16.55-16.87Q15.37-18.53 13.04-18.53Q8.30-18.53 8.30-11.70Z" transform="translate(-1.66, 23.71)" />
        </g>
      </g>
      <!-- Tiếp tục các glyph khác nếu cần -->
    </g>
  </g>
</svg>